<svg width="12" height="8" viewBox="0 0 12 8" fill="none" xmlns="http://www.w3.org/2000/svg">
<path d="M6.156 5.70617C6.21847 5.63198 6.25362 5.58512 6.29657 5.54217C7.68278 4.15596 9.06898 2.76585 10.4591 1.38355C10.545 1.29765 10.6621 1.22736 10.7793 1.19612C10.9589 1.14536 11.1541 1.25469 11.2479 1.4187C11.3416 1.5827 11.3299 1.78965 11.2088 1.94194C11.1737 1.9888 11.1307 2.02785 11.0878 2.0708C9.58051 3.57805 8.07326 5.08531 6.566 6.59647C6.27314 6.88933 6.03885 6.88933 5.7499 6.60037C4.22702 5.0775 2.70805 3.55462 1.18518 2.03566C1.0407 1.89118 0.958702 1.73108 1.02118 1.52413C1.11489 1.20784 1.48976 1.08679 1.75138 1.28593C1.79823 1.32108 1.83728 1.36403 1.88024 1.40698C3.26254 2.78928 4.64874 4.17549 6.03104 5.55779C6.07009 5.59293 6.10133 5.63979 6.156 5.70617Z" fill="black" stroke="black"/>
</svg>
